M48
; DRILL file {KiCad (6.99.0-1665-g4ee6cfe5b6)} date Tue Apr 26 18:14:50 2022
; FORMAT={-:-/ absolute / inch / decimal}
; #@! TF.CreationDate,2022-04-26T18:14:50+08:00
; #@! TF.GenerationSoftware,Kicad,Pcbnew,(6.99.0-1665-g4ee6cfe5b6)
; #@! TF.FileFunction,Plated,1,2,PTH
FMAT,2
INCH
; #@! TA.AperFunction,Plated,PTH,ViaDrill
T1C0.0157
; #@! TA.AperFunction,Plated,PTH,ComponentDrill
T2C0.0236
; #@! TA.AperFunction,Plated,PTH,ComponentDrill
T3C0.0315
; #@! TA.AperFunction,Plated,PTH,ComponentDrill
T4C0.0394
; #@! TA.AperFunction,Plated,PTH,ComponentDrill
T5C0.0472
; #@! TA.AperFunction,Plated,PTH,ComponentDrill
T6C0.0984
%
G90
G05
T1
X4.0581Y-2.5827
X4.0679Y-3.4213
X4.0797Y-2.877
X4.1004Y-3.062
X4.1348Y-3.2323
X4.1949Y-3.9892
X4.2057Y-2.8031
X4.2205Y-3.4911
X4.2234Y-2.3976
X4.2343Y-3.2372
X4.2382Y-3.0541
X4.3563Y-2.3976
X4.3907Y-2.8219
X4.3937Y-3.123
X4.3937Y-3.2372
X4.4163Y-3.501
X4.4173Y-4.4852
X4.4262Y-3.9449
X4.5138Y-2.7165
X4.5374Y-2.5965
X4.5689Y-3.1752
X4.5837Y-2.9685
X4.6152Y-3.2382
X4.6368Y-3.1152
X4.6555Y-2.5157
X4.6614Y-3.5118
X4.6732Y-2.94
X4.6732Y-2.9882
X4.6821Y-3.1417
X4.701Y-2.7163
X4.7096Y-2.9872
X4.7106Y-2.939
X4.747Y-2.9872
X4.748Y-2.939
X4.7638Y-3.8081
X4.7872Y-2.8033
X4.7923Y-3.1309
X4.8041Y-3.3839
X4.8238Y-3.1752
X4.8356Y-2.9636
X4.8691Y-3.0817
X4.8947Y-2.8888
X4.9006Y-2.5364
X4.9429Y-3.1772
X4.9429Y-3.2992
X4.9449Y-3.0817
X4.9459Y-2.9695
X4.9498Y-2.4695
X4.999Y-2.5344
X5.0069Y-2.8799
X5.0364Y-2.6732
X5.0502Y-2.5305
X5.0994Y-2.5374
X5.1614Y-4.3986
X5.2136Y-4.0522
X5.2264Y-3.563
X5.2323Y-2.4252
X5.247Y-4.8563
X5.2657Y-3.1289
X5.2835Y-2.8593
X5.3868Y-3.3415
X5.4902Y-3.1644
X5.502Y-3.3839
X5.5128Y-3.562
X5.5197Y-2.8829
X5.5561Y-2.9636
X5.6063Y-2.5728
X5.6063Y-3.3829
X5.6329Y-2.5325
X5.6663Y-3.3829
X5.7165Y-2.8602
X5.7854Y-3.1063
X5.8022Y-4.1152
X5.8179Y-2.5866
X5.8199Y-3.7205
X5.8268Y-2.7077
X5.8622Y-3.9528
X5.8976Y-4.0472
X5.9075Y-3.7234
X5.9341Y-4.0837
X5.9478Y-3.5276
X5.9759Y-4.1182
X5.997Y-4.1604
X6.0423Y-2.4862
X6.0679Y-3.9262
X6.0748Y-4.1585
X6.0792Y-3.7151
X6.0837Y-4.6565
X6.0984Y-2.9232
X6.124Y-3.0935
X6.1594Y-2.689
X6.1722Y-3.7559
X6.1722Y-3.876
X6.1732Y-3.815
X6.1811Y-3.25
X6.2018Y-3.7874
X6.2018Y-3.8465
X6.2165Y-4.0276
X6.2165Y-4.065
X6.2313Y-4.4114
X6.2323Y-3.876
X6.2333Y-3.8148
X6.2343Y-3.7579
X6.2638Y-3.7864
X6.2638Y-3.8474
X6.2904Y-3.7579
X6.2904Y-3.8159
X6.2904Y-3.874
X6.2923Y-2.75
X6.2982Y-4.185
X6.3022Y-3.5965
X6.3563Y-3.6703
X6.3632Y-3.5719
X6.3642Y-3.4459
X6.3691Y-2.5364
X6.3799Y-2.6378
X6.3878Y-2.4252
X6.4085Y-3.8356
X6.4124Y-3.0108
X6.4124Y-3.1486
X6.4173Y-4.9636
X6.4577Y-2.4882
X6.4665Y-3.6722
X6.4862Y-2.7539
X6.5256Y-3.4567
X6.5315Y-3.6033
X6.5374Y-2.8159
X6.5384Y-2.5325
X6.5669Y-4.2146
X6.5719Y-2.6535
X6.5994Y-4.0965
X6.6801Y-3.1909
X6.69Y-3.8533
X6.6978Y-2.4783
X6.7047Y-2.8583
X6.7175Y-2.7923
X6.7657Y-2.6299
X6.8113Y-2.9141
X6.8258Y-2.8031
X6.8337Y-4.4439
X6.8484Y-3.685
X6.8573Y-2.5679
X6.8819Y-3.9065
X6.9055Y-3.498
X6.9104Y-3.189
X6.9163Y-2.622
X7.0354Y-2.9961
X7.0787Y-4.0295
X7.0876Y-2.5728
X7.0896Y-3.2844
X7.122Y-2.8041
X7.1309Y-3.3848
X7.1368Y-3.8317
T3
X4.4695Y-3.3927
X4.5695Y-3.3927
X4.6695Y-3.3927
T4
X4.4616Y-2.8661
X4.4616Y-2.9661
X5.0862Y-3.0102
X5.0862Y-3.1102
X5.0862Y-3.2102
X5.2953Y-2.5591
X5.2953Y-2.6378
X5.2953Y-2.7165
X5.3862Y-3.0102
X5.3862Y-3.1102
X5.3862Y-3.2102
X5.4921Y-2.5591
X5.4921Y-2.6378
X5.4921Y-2.7165
X5.6768Y-3.0102
X5.6768Y-3.1102
X5.6768Y-3.2102
X5.7283Y-2.5591
X5.7283Y-2.6378
X5.7283Y-2.7165
X5.7984Y-3.4459
X5.8984Y-3.4459
X5.9252Y-2.5591
X5.9252Y-2.6378
X5.9252Y-2.7165
X5.9768Y-3.0102
X5.9768Y-3.1102
X5.9768Y-3.2102
X5.9984Y-3.4459
X6.0984Y-3.4459
T5
X4.3701Y-3.6473
X4.4701Y-3.6473
X4.5701Y-3.6473
X4.6701Y-3.6473
X4.7701Y-3.6473
X4.8701Y-3.6473
X4.9701Y-3.6473
X5.0701Y-3.6473
X5.1701Y-3.6473
X5.2701Y-3.6473
X5.3701Y-3.6473
X5.4701Y-3.6473
X5.5701Y-3.6473
X5.6701Y-3.6473
X5.7701Y-3.6473
X5.8701Y-3.6473
T6
X4.1536Y-3.6473
X4.1536Y-4.8678
X7.1063Y-4.8678
X7.1063Y-3.6473
T2
G00X4.4362Y-2.4819
M15
G01X4.4362Y-2.4583
M16
G05
G00X4.4362Y-2.6563
M15
G01X4.4362Y-2.613
M16
G05
G00X4.7764Y-2.4819
M15
G01X4.7764Y-2.4583
M16
G05
G00X4.7764Y-2.6563
M15
G01X4.7764Y-2.613
M16
G05
T0
M30
