%TF.GenerationSoftware,KiCad,Pcbnew,(6.99.0-1665-g4ee6cfe5b6)*%
%TF.CreationDate,2022-04-26T18:14:45+08:00*%
%TF.ProjectId,LightMeherGen2,4c696768-744d-4656-9865-7247656e322e,rev?*%
%TF.SameCoordinates,Original*%
%TF.FileFunction,Legend,Bot*%
%TF.FilePolarity,Positive*%
%FSLAX46Y46*%
G04 Gerber Fmt 4.6, Leading zero omitted, Abs format (unit mm)*
G04 Created by KiCad (PCBNEW (6.99.0-1665-g4ee6cfe5b6)) date 2022-04-26 18:14:45*
%MOMM*%
%LPD*%
G01*
G04 APERTURE LIST*
%ADD10C,0.150000*%
%ADD11C,0.120000*%
%ADD12C,0.254000*%
G04 APERTURE END LIST*
D10*
%TO.C,U1*%
X116711904Y-77667380D02*
X116711904Y-78476904D01*
X116711904Y-78476904D02*
X116664285Y-78572142D01*
X116664285Y-78572142D02*
X116616666Y-78619761D01*
X116616666Y-78619761D02*
X116521428Y-78667380D01*
X116521428Y-78667380D02*
X116330952Y-78667380D01*
X116330952Y-78667380D02*
X116235714Y-78619761D01*
X116235714Y-78619761D02*
X116188095Y-78572142D01*
X116188095Y-78572142D02*
X116140476Y-78476904D01*
X116140476Y-78476904D02*
X116140476Y-77667380D01*
X115140476Y-78667380D02*
X115711904Y-78667380D01*
X115426190Y-78667380D02*
X115426190Y-77667380D01*
X115426190Y-77667380D02*
X115521428Y-77810238D01*
X115521428Y-77810238D02*
X115616666Y-77905476D01*
X115616666Y-77905476D02*
X115711904Y-77953095D01*
%TO.C,C3*%
X169516666Y-73297142D02*
X169564285Y-73344761D01*
X169564285Y-73344761D02*
X169707142Y-73392380D01*
X169707142Y-73392380D02*
X169802380Y-73392380D01*
X169802380Y-73392380D02*
X169945237Y-73344761D01*
X169945237Y-73344761D02*
X170040475Y-73249523D01*
X170040475Y-73249523D02*
X170088094Y-73154285D01*
X170088094Y-73154285D02*
X170135713Y-72963809D01*
X170135713Y-72963809D02*
X170135713Y-72820952D01*
X170135713Y-72820952D02*
X170088094Y-72630476D01*
X170088094Y-72630476D02*
X170040475Y-72535238D01*
X170040475Y-72535238D02*
X169945237Y-72440000D01*
X169945237Y-72440000D02*
X169802380Y-72392380D01*
X169802380Y-72392380D02*
X169707142Y-72392380D01*
X169707142Y-72392380D02*
X169564285Y-72440000D01*
X169564285Y-72440000D02*
X169516666Y-72487619D01*
X169183332Y-72392380D02*
X168564285Y-72392380D01*
X168564285Y-72392380D02*
X168897618Y-72773333D01*
X168897618Y-72773333D02*
X168754761Y-72773333D01*
X168754761Y-72773333D02*
X168659523Y-72820952D01*
X168659523Y-72820952D02*
X168611904Y-72868571D01*
X168611904Y-72868571D02*
X168564285Y-72963809D01*
X168564285Y-72963809D02*
X168564285Y-73201904D01*
X168564285Y-73201904D02*
X168611904Y-73297142D01*
X168611904Y-73297142D02*
X168659523Y-73344761D01*
X168659523Y-73344761D02*
X168754761Y-73392380D01*
X168754761Y-73392380D02*
X169040475Y-73392380D01*
X169040475Y-73392380D02*
X169135713Y-73344761D01*
X169135713Y-73344761D02*
X169183332Y-73297142D01*
%TO.C,C12*%
X127667857Y-69597142D02*
X127715476Y-69644761D01*
X127715476Y-69644761D02*
X127858333Y-69692380D01*
X127858333Y-69692380D02*
X127953571Y-69692380D01*
X127953571Y-69692380D02*
X128096428Y-69644761D01*
X128096428Y-69644761D02*
X128191666Y-69549523D01*
X128191666Y-69549523D02*
X128239285Y-69454285D01*
X128239285Y-69454285D02*
X128286904Y-69263809D01*
X128286904Y-69263809D02*
X128286904Y-69120952D01*
X128286904Y-69120952D02*
X128239285Y-68930476D01*
X128239285Y-68930476D02*
X128191666Y-68835238D01*
X128191666Y-68835238D02*
X128096428Y-68740000D01*
X128096428Y-68740000D02*
X127953571Y-68692380D01*
X127953571Y-68692380D02*
X127858333Y-68692380D01*
X127858333Y-68692380D02*
X127715476Y-68740000D01*
X127715476Y-68740000D02*
X127667857Y-68787619D01*
X126715476Y-69692380D02*
X127286904Y-69692380D01*
X127001190Y-69692380D02*
X127001190Y-68692380D01*
X127001190Y-68692380D02*
X127096428Y-68835238D01*
X127096428Y-68835238D02*
X127191666Y-68930476D01*
X127191666Y-68930476D02*
X127286904Y-68978095D01*
X126334523Y-68787619D02*
X126286904Y-68740000D01*
X126286904Y-68740000D02*
X126191666Y-68692380D01*
X126191666Y-68692380D02*
X125953571Y-68692380D01*
X125953571Y-68692380D02*
X125858333Y-68740000D01*
X125858333Y-68740000D02*
X125810714Y-68787619D01*
X125810714Y-68787619D02*
X125763095Y-68882857D01*
X125763095Y-68882857D02*
X125763095Y-68978095D01*
X125763095Y-68978095D02*
X125810714Y-69120952D01*
X125810714Y-69120952D02*
X126382142Y-69692380D01*
X126382142Y-69692380D02*
X125763095Y-69692380D01*
%TO.C,C14*%
X110492857Y-71642142D02*
X110540476Y-71689761D01*
X110540476Y-71689761D02*
X110683333Y-71737380D01*
X110683333Y-71737380D02*
X110778571Y-71737380D01*
X110778571Y-71737380D02*
X110921428Y-71689761D01*
X110921428Y-71689761D02*
X111016666Y-71594523D01*
X111016666Y-71594523D02*
X111064285Y-71499285D01*
X111064285Y-71499285D02*
X111111904Y-71308809D01*
X111111904Y-71308809D02*
X111111904Y-71165952D01*
X111111904Y-71165952D02*
X111064285Y-70975476D01*
X111064285Y-70975476D02*
X111016666Y-70880238D01*
X111016666Y-70880238D02*
X110921428Y-70785000D01*
X110921428Y-70785000D02*
X110778571Y-70737380D01*
X110778571Y-70737380D02*
X110683333Y-70737380D01*
X110683333Y-70737380D02*
X110540476Y-70785000D01*
X110540476Y-70785000D02*
X110492857Y-70832619D01*
X109540476Y-71737380D02*
X110111904Y-71737380D01*
X109826190Y-71737380D02*
X109826190Y-70737380D01*
X109826190Y-70737380D02*
X109921428Y-70880238D01*
X109921428Y-70880238D02*
X110016666Y-70975476D01*
X110016666Y-70975476D02*
X110111904Y-71023095D01*
X108683333Y-71070714D02*
X108683333Y-71737380D01*
X108921428Y-70689761D02*
X109159523Y-71404047D01*
X109159523Y-71404047D02*
X108540476Y-71404047D01*
%TO.C,Y1*%
X165151190Y-101666190D02*
X165151190Y-102142380D01*
X165484523Y-101142380D02*
X165151190Y-101666190D01*
X165151190Y-101666190D02*
X164817857Y-101142380D01*
X163960714Y-102142380D02*
X164532142Y-102142380D01*
X164246428Y-102142380D02*
X164246428Y-101142380D01*
X164246428Y-101142380D02*
X164341666Y-101285238D01*
X164341666Y-101285238D02*
X164436904Y-101380476D01*
X164436904Y-101380476D02*
X164532142Y-101428095D01*
%TO.C,C6*%
X166016666Y-104022142D02*
X166064285Y-104069761D01*
X166064285Y-104069761D02*
X166207142Y-104117380D01*
X166207142Y-104117380D02*
X166302380Y-104117380D01*
X166302380Y-104117380D02*
X166445237Y-104069761D01*
X166445237Y-104069761D02*
X166540475Y-103974523D01*
X166540475Y-103974523D02*
X166588094Y-103879285D01*
X166588094Y-103879285D02*
X166635713Y-103688809D01*
X166635713Y-103688809D02*
X166635713Y-103545952D01*
X166635713Y-103545952D02*
X166588094Y-103355476D01*
X166588094Y-103355476D02*
X166540475Y-103260238D01*
X166540475Y-103260238D02*
X166445237Y-103165000D01*
X166445237Y-103165000D02*
X166302380Y-103117380D01*
X166302380Y-103117380D02*
X166207142Y-103117380D01*
X166207142Y-103117380D02*
X166064285Y-103165000D01*
X166064285Y-103165000D02*
X166016666Y-103212619D01*
X165159523Y-103117380D02*
X165349999Y-103117380D01*
X165349999Y-103117380D02*
X165445237Y-103165000D01*
X165445237Y-103165000D02*
X165492856Y-103212619D01*
X165492856Y-103212619D02*
X165588094Y-103355476D01*
X165588094Y-103355476D02*
X165635713Y-103545952D01*
X165635713Y-103545952D02*
X165635713Y-103926904D01*
X165635713Y-103926904D02*
X165588094Y-104022142D01*
X165588094Y-104022142D02*
X165540475Y-104069761D01*
X165540475Y-104069761D02*
X165445237Y-104117380D01*
X165445237Y-104117380D02*
X165254761Y-104117380D01*
X165254761Y-104117380D02*
X165159523Y-104069761D01*
X165159523Y-104069761D02*
X165111904Y-104022142D01*
X165111904Y-104022142D02*
X165064285Y-103926904D01*
X165064285Y-103926904D02*
X165064285Y-103688809D01*
X165064285Y-103688809D02*
X165111904Y-103593571D01*
X165111904Y-103593571D02*
X165159523Y-103545952D01*
X165159523Y-103545952D02*
X165254761Y-103498333D01*
X165254761Y-103498333D02*
X165445237Y-103498333D01*
X165445237Y-103498333D02*
X165540475Y-103545952D01*
X165540475Y-103545952D02*
X165588094Y-103593571D01*
X165588094Y-103593571D02*
X165635713Y-103688809D01*
%TO.C,R9*%
X176866666Y-70817380D02*
X177199999Y-70341190D01*
X177438094Y-70817380D02*
X177438094Y-69817380D01*
X177438094Y-69817380D02*
X177057142Y-69817380D01*
X177057142Y-69817380D02*
X176961904Y-69865000D01*
X176961904Y-69865000D02*
X176914285Y-69912619D01*
X176914285Y-69912619D02*
X176866666Y-70007857D01*
X176866666Y-70007857D02*
X176866666Y-70150714D01*
X176866666Y-70150714D02*
X176914285Y-70245952D01*
X176914285Y-70245952D02*
X176961904Y-70293571D01*
X176961904Y-70293571D02*
X177057142Y-70341190D01*
X177057142Y-70341190D02*
X177438094Y-70341190D01*
X176390475Y-70817380D02*
X176199999Y-70817380D01*
X176199999Y-70817380D02*
X176104761Y-70769761D01*
X176104761Y-70769761D02*
X176057142Y-70722142D01*
X176057142Y-70722142D02*
X175961904Y-70579285D01*
X175961904Y-70579285D02*
X175914285Y-70388809D01*
X175914285Y-70388809D02*
X175914285Y-70007857D01*
X175914285Y-70007857D02*
X175961904Y-69912619D01*
X175961904Y-69912619D02*
X176009523Y-69865000D01*
X176009523Y-69865000D02*
X176104761Y-69817380D01*
X176104761Y-69817380D02*
X176295237Y-69817380D01*
X176295237Y-69817380D02*
X176390475Y-69865000D01*
X176390475Y-69865000D02*
X176438094Y-69912619D01*
X176438094Y-69912619D02*
X176485713Y-70007857D01*
X176485713Y-70007857D02*
X176485713Y-70245952D01*
X176485713Y-70245952D02*
X176438094Y-70341190D01*
X176438094Y-70341190D02*
X176390475Y-70388809D01*
X176390475Y-70388809D02*
X176295237Y-70436428D01*
X176295237Y-70436428D02*
X176104761Y-70436428D01*
X176104761Y-70436428D02*
X176009523Y-70388809D01*
X176009523Y-70388809D02*
X175961904Y-70341190D01*
X175961904Y-70341190D02*
X175914285Y-70245952D01*
%TO.C,R2*%
X116241666Y-63687380D02*
X116574999Y-63211190D01*
X116813094Y-63687380D02*
X116813094Y-62687380D01*
X116813094Y-62687380D02*
X116432142Y-62687380D01*
X116432142Y-62687380D02*
X116336904Y-62735000D01*
X116336904Y-62735000D02*
X116289285Y-62782619D01*
X116289285Y-62782619D02*
X116241666Y-62877857D01*
X116241666Y-62877857D02*
X116241666Y-63020714D01*
X116241666Y-63020714D02*
X116289285Y-63115952D01*
X116289285Y-63115952D02*
X116336904Y-63163571D01*
X116336904Y-63163571D02*
X116432142Y-63211190D01*
X116432142Y-63211190D02*
X116813094Y-63211190D01*
X115860713Y-62782619D02*
X115813094Y-62735000D01*
X115813094Y-62735000D02*
X115717856Y-62687380D01*
X115717856Y-62687380D02*
X115479761Y-62687380D01*
X115479761Y-62687380D02*
X115384523Y-62735000D01*
X115384523Y-62735000D02*
X115336904Y-62782619D01*
X115336904Y-62782619D02*
X115289285Y-62877857D01*
X115289285Y-62877857D02*
X115289285Y-62973095D01*
X115289285Y-62973095D02*
X115336904Y-63115952D01*
X115336904Y-63115952D02*
X115908332Y-63687380D01*
X115908332Y-63687380D02*
X115289285Y-63687380D01*
%TO.C,C4*%
X152491666Y-101972142D02*
X152539285Y-102019761D01*
X152539285Y-102019761D02*
X152682142Y-102067380D01*
X152682142Y-102067380D02*
X152777380Y-102067380D01*
X152777380Y-102067380D02*
X152920237Y-102019761D01*
X152920237Y-102019761D02*
X153015475Y-101924523D01*
X153015475Y-101924523D02*
X153063094Y-101829285D01*
X153063094Y-101829285D02*
X153110713Y-101638809D01*
X153110713Y-101638809D02*
X153110713Y-101495952D01*
X153110713Y-101495952D02*
X153063094Y-101305476D01*
X153063094Y-101305476D02*
X153015475Y-101210238D01*
X153015475Y-101210238D02*
X152920237Y-101115000D01*
X152920237Y-101115000D02*
X152777380Y-101067380D01*
X152777380Y-101067380D02*
X152682142Y-101067380D01*
X152682142Y-101067380D02*
X152539285Y-101115000D01*
X152539285Y-101115000D02*
X152491666Y-101162619D01*
X151634523Y-101400714D02*
X151634523Y-102067380D01*
X151872618Y-101019761D02*
X152110713Y-101734047D01*
X152110713Y-101734047D02*
X151491666Y-101734047D01*
%TO.C,R6*%
X153941666Y-106917380D02*
X154274999Y-106441190D01*
X154513094Y-106917380D02*
X154513094Y-105917380D01*
X154513094Y-105917380D02*
X154132142Y-105917380D01*
X154132142Y-105917380D02*
X154036904Y-105965000D01*
X154036904Y-105965000D02*
X153989285Y-106012619D01*
X153989285Y-106012619D02*
X153941666Y-106107857D01*
X153941666Y-106107857D02*
X153941666Y-106250714D01*
X153941666Y-106250714D02*
X153989285Y-106345952D01*
X153989285Y-106345952D02*
X154036904Y-106393571D01*
X154036904Y-106393571D02*
X154132142Y-106441190D01*
X154132142Y-106441190D02*
X154513094Y-106441190D01*
X153084523Y-105917380D02*
X153274999Y-105917380D01*
X153274999Y-105917380D02*
X153370237Y-105965000D01*
X153370237Y-105965000D02*
X153417856Y-106012619D01*
X153417856Y-106012619D02*
X153513094Y-106155476D01*
X153513094Y-106155476D02*
X153560713Y-106345952D01*
X153560713Y-106345952D02*
X153560713Y-106726904D01*
X153560713Y-106726904D02*
X153513094Y-106822142D01*
X153513094Y-106822142D02*
X153465475Y-106869761D01*
X153465475Y-106869761D02*
X153370237Y-106917380D01*
X153370237Y-106917380D02*
X153179761Y-106917380D01*
X153179761Y-106917380D02*
X153084523Y-106869761D01*
X153084523Y-106869761D02*
X153036904Y-106822142D01*
X153036904Y-106822142D02*
X152989285Y-106726904D01*
X152989285Y-106726904D02*
X152989285Y-106488809D01*
X152989285Y-106488809D02*
X153036904Y-106393571D01*
X153036904Y-106393571D02*
X153084523Y-106345952D01*
X153084523Y-106345952D02*
X153179761Y-106298333D01*
X153179761Y-106298333D02*
X153370237Y-106298333D01*
X153370237Y-106298333D02*
X153465475Y-106345952D01*
X153465475Y-106345952D02*
X153513094Y-106393571D01*
X153513094Y-106393571D02*
X153560713Y-106488809D01*
%TO.C,R3*%
X122137380Y-80683333D02*
X121661190Y-80350000D01*
X122137380Y-80111905D02*
X121137380Y-80111905D01*
X121137380Y-80111905D02*
X121137380Y-80492857D01*
X121137380Y-80492857D02*
X121185000Y-80588095D01*
X121185000Y-80588095D02*
X121232619Y-80635714D01*
X121232619Y-80635714D02*
X121327857Y-80683333D01*
X121327857Y-80683333D02*
X121470714Y-80683333D01*
X121470714Y-80683333D02*
X121565952Y-80635714D01*
X121565952Y-80635714D02*
X121613571Y-80588095D01*
X121613571Y-80588095D02*
X121661190Y-80492857D01*
X121661190Y-80492857D02*
X121661190Y-80111905D01*
X121137380Y-81016667D02*
X121137380Y-81635714D01*
X121137380Y-81635714D02*
X121518333Y-81302381D01*
X121518333Y-81302381D02*
X121518333Y-81445238D01*
X121518333Y-81445238D02*
X121565952Y-81540476D01*
X121565952Y-81540476D02*
X121613571Y-81588095D01*
X121613571Y-81588095D02*
X121708809Y-81635714D01*
X121708809Y-81635714D02*
X121946904Y-81635714D01*
X121946904Y-81635714D02*
X122042142Y-81588095D01*
X122042142Y-81588095D02*
X122089761Y-81540476D01*
X122089761Y-81540476D02*
X122137380Y-81445238D01*
X122137380Y-81445238D02*
X122137380Y-81159524D01*
X122137380Y-81159524D02*
X122089761Y-81064286D01*
X122089761Y-81064286D02*
X122042142Y-81016667D01*
%TO.C,C16*%
X168667857Y-94422142D02*
X168715476Y-94469761D01*
X168715476Y-94469761D02*
X168858333Y-94517380D01*
X168858333Y-94517380D02*
X168953571Y-94517380D01*
X168953571Y-94517380D02*
X169096428Y-94469761D01*
X169096428Y-94469761D02*
X169191666Y-94374523D01*
X169191666Y-94374523D02*
X169239285Y-94279285D01*
X169239285Y-94279285D02*
X169286904Y-94088809D01*
X169286904Y-94088809D02*
X169286904Y-93945952D01*
X169286904Y-93945952D02*
X169239285Y-93755476D01*
X169239285Y-93755476D02*
X169191666Y-93660238D01*
X169191666Y-93660238D02*
X169096428Y-93565000D01*
X169096428Y-93565000D02*
X168953571Y-93517380D01*
X168953571Y-93517380D02*
X168858333Y-93517380D01*
X168858333Y-93517380D02*
X168715476Y-93565000D01*
X168715476Y-93565000D02*
X168667857Y-93612619D01*
X167715476Y-94517380D02*
X168286904Y-94517380D01*
X168001190Y-94517380D02*
X168001190Y-93517380D01*
X168001190Y-93517380D02*
X168096428Y-93660238D01*
X168096428Y-93660238D02*
X168191666Y-93755476D01*
X168191666Y-93755476D02*
X168286904Y-93803095D01*
X166858333Y-93517380D02*
X167048809Y-93517380D01*
X167048809Y-93517380D02*
X167144047Y-93565000D01*
X167144047Y-93565000D02*
X167191666Y-93612619D01*
X167191666Y-93612619D02*
X167286904Y-93755476D01*
X167286904Y-93755476D02*
X167334523Y-93945952D01*
X167334523Y-93945952D02*
X167334523Y-94326904D01*
X167334523Y-94326904D02*
X167286904Y-94422142D01*
X167286904Y-94422142D02*
X167239285Y-94469761D01*
X167239285Y-94469761D02*
X167144047Y-94517380D01*
X167144047Y-94517380D02*
X166953571Y-94517380D01*
X166953571Y-94517380D02*
X166858333Y-94469761D01*
X166858333Y-94469761D02*
X166810714Y-94422142D01*
X166810714Y-94422142D02*
X166763095Y-94326904D01*
X166763095Y-94326904D02*
X166763095Y-94088809D01*
X166763095Y-94088809D02*
X166810714Y-93993571D01*
X166810714Y-93993571D02*
X166858333Y-93945952D01*
X166858333Y-93945952D02*
X166953571Y-93898333D01*
X166953571Y-93898333D02*
X167144047Y-93898333D01*
X167144047Y-93898333D02*
X167239285Y-93945952D01*
X167239285Y-93945952D02*
X167286904Y-93993571D01*
X167286904Y-93993571D02*
X167334523Y-94088809D01*
%TO.C,U2*%
X126411904Y-72367380D02*
X126411904Y-73176904D01*
X126411904Y-73176904D02*
X126364285Y-73272142D01*
X126364285Y-73272142D02*
X126316666Y-73319761D01*
X126316666Y-73319761D02*
X126221428Y-73367380D01*
X126221428Y-73367380D02*
X126030952Y-73367380D01*
X126030952Y-73367380D02*
X125935714Y-73319761D01*
X125935714Y-73319761D02*
X125888095Y-73272142D01*
X125888095Y-73272142D02*
X125840476Y-73176904D01*
X125840476Y-73176904D02*
X125840476Y-72367380D01*
X125411904Y-72462619D02*
X125364285Y-72415000D01*
X125364285Y-72415000D02*
X125269047Y-72367380D01*
X125269047Y-72367380D02*
X125030952Y-72367380D01*
X125030952Y-72367380D02*
X124935714Y-72415000D01*
X124935714Y-72415000D02*
X124888095Y-72462619D01*
X124888095Y-72462619D02*
X124840476Y-72557857D01*
X124840476Y-72557857D02*
X124840476Y-72653095D01*
X124840476Y-72653095D02*
X124888095Y-72795952D01*
X124888095Y-72795952D02*
X125459523Y-73367380D01*
X125459523Y-73367380D02*
X124840476Y-73367380D01*
%TO.C,R7*%
X153966666Y-105342380D02*
X154299999Y-104866190D01*
X154538094Y-105342380D02*
X154538094Y-104342380D01*
X154538094Y-104342380D02*
X154157142Y-104342380D01*
X154157142Y-104342380D02*
X154061904Y-104390000D01*
X154061904Y-104390000D02*
X154014285Y-104437619D01*
X154014285Y-104437619D02*
X153966666Y-104532857D01*
X153966666Y-104532857D02*
X153966666Y-104675714D01*
X153966666Y-104675714D02*
X154014285Y-104770952D01*
X154014285Y-104770952D02*
X154061904Y-104818571D01*
X154061904Y-104818571D02*
X154157142Y-104866190D01*
X154157142Y-104866190D02*
X154538094Y-104866190D01*
X153633332Y-104342380D02*
X152966666Y-104342380D01*
X152966666Y-104342380D02*
X153395237Y-105342380D01*
%TO.C,C13*%
X127667857Y-71222142D02*
X127715476Y-71269761D01*
X127715476Y-71269761D02*
X127858333Y-71317380D01*
X127858333Y-71317380D02*
X127953571Y-71317380D01*
X127953571Y-71317380D02*
X128096428Y-71269761D01*
X128096428Y-71269761D02*
X128191666Y-71174523D01*
X128191666Y-71174523D02*
X128239285Y-71079285D01*
X128239285Y-71079285D02*
X128286904Y-70888809D01*
X128286904Y-70888809D02*
X128286904Y-70745952D01*
X128286904Y-70745952D02*
X128239285Y-70555476D01*
X128239285Y-70555476D02*
X128191666Y-70460238D01*
X128191666Y-70460238D02*
X128096428Y-70365000D01*
X128096428Y-70365000D02*
X127953571Y-70317380D01*
X127953571Y-70317380D02*
X127858333Y-70317380D01*
X127858333Y-70317380D02*
X127715476Y-70365000D01*
X127715476Y-70365000D02*
X127667857Y-70412619D01*
X126715476Y-71317380D02*
X127286904Y-71317380D01*
X127001190Y-71317380D02*
X127001190Y-70317380D01*
X127001190Y-70317380D02*
X127096428Y-70460238D01*
X127096428Y-70460238D02*
X127191666Y-70555476D01*
X127191666Y-70555476D02*
X127286904Y-70603095D01*
X126382142Y-70317380D02*
X125763095Y-70317380D01*
X125763095Y-70317380D02*
X126096428Y-70698333D01*
X126096428Y-70698333D02*
X125953571Y-70698333D01*
X125953571Y-70698333D02*
X125858333Y-70745952D01*
X125858333Y-70745952D02*
X125810714Y-70793571D01*
X125810714Y-70793571D02*
X125763095Y-70888809D01*
X125763095Y-70888809D02*
X125763095Y-71126904D01*
X125763095Y-71126904D02*
X125810714Y-71222142D01*
X125810714Y-71222142D02*
X125858333Y-71269761D01*
X125858333Y-71269761D02*
X125953571Y-71317380D01*
X125953571Y-71317380D02*
X126239285Y-71317380D01*
X126239285Y-71317380D02*
X126334523Y-71269761D01*
X126334523Y-71269761D02*
X126382142Y-71222142D01*
%TO.C,C18*%
X170242857Y-96947142D02*
X170290476Y-96994761D01*
X170290476Y-96994761D02*
X170433333Y-97042380D01*
X170433333Y-97042380D02*
X170528571Y-97042380D01*
X170528571Y-97042380D02*
X170671428Y-96994761D01*
X170671428Y-96994761D02*
X170766666Y-96899523D01*
X170766666Y-96899523D02*
X170814285Y-96804285D01*
X170814285Y-96804285D02*
X170861904Y-96613809D01*
X170861904Y-96613809D02*
X170861904Y-96470952D01*
X170861904Y-96470952D02*
X170814285Y-96280476D01*
X170814285Y-96280476D02*
X170766666Y-96185238D01*
X170766666Y-96185238D02*
X170671428Y-96090000D01*
X170671428Y-96090000D02*
X170528571Y-96042380D01*
X170528571Y-96042380D02*
X170433333Y-96042380D01*
X170433333Y-96042380D02*
X170290476Y-96090000D01*
X170290476Y-96090000D02*
X170242857Y-96137619D01*
X169290476Y-97042380D02*
X169861904Y-97042380D01*
X169576190Y-97042380D02*
X169576190Y-96042380D01*
X169576190Y-96042380D02*
X169671428Y-96185238D01*
X169671428Y-96185238D02*
X169766666Y-96280476D01*
X169766666Y-96280476D02*
X169861904Y-96328095D01*
X168719047Y-96470952D02*
X168814285Y-96423333D01*
X168814285Y-96423333D02*
X168861904Y-96375714D01*
X168861904Y-96375714D02*
X168909523Y-96280476D01*
X168909523Y-96280476D02*
X168909523Y-96232857D01*
X168909523Y-96232857D02*
X168861904Y-96137619D01*
X168861904Y-96137619D02*
X168814285Y-96090000D01*
X168814285Y-96090000D02*
X168719047Y-96042380D01*
X168719047Y-96042380D02*
X168528571Y-96042380D01*
X168528571Y-96042380D02*
X168433333Y-96090000D01*
X168433333Y-96090000D02*
X168385714Y-96137619D01*
X168385714Y-96137619D02*
X168338095Y-96232857D01*
X168338095Y-96232857D02*
X168338095Y-96280476D01*
X168338095Y-96280476D02*
X168385714Y-96375714D01*
X168385714Y-96375714D02*
X168433333Y-96423333D01*
X168433333Y-96423333D02*
X168528571Y-96470952D01*
X168528571Y-96470952D02*
X168719047Y-96470952D01*
X168719047Y-96470952D02*
X168814285Y-96518571D01*
X168814285Y-96518571D02*
X168861904Y-96566190D01*
X168861904Y-96566190D02*
X168909523Y-96661428D01*
X168909523Y-96661428D02*
X168909523Y-96851904D01*
X168909523Y-96851904D02*
X168861904Y-96947142D01*
X168861904Y-96947142D02*
X168814285Y-96994761D01*
X168814285Y-96994761D02*
X168719047Y-97042380D01*
X168719047Y-97042380D02*
X168528571Y-97042380D01*
X168528571Y-97042380D02*
X168433333Y-96994761D01*
X168433333Y-96994761D02*
X168385714Y-96947142D01*
X168385714Y-96947142D02*
X168338095Y-96851904D01*
X168338095Y-96851904D02*
X168338095Y-96661428D01*
X168338095Y-96661428D02*
X168385714Y-96566190D01*
X168385714Y-96566190D02*
X168433333Y-96518571D01*
X168433333Y-96518571D02*
X168528571Y-96470952D01*
%TO.C,R8*%
X167716666Y-92967380D02*
X168049999Y-92491190D01*
X168288094Y-92967380D02*
X168288094Y-91967380D01*
X168288094Y-91967380D02*
X167907142Y-91967380D01*
X167907142Y-91967380D02*
X167811904Y-92015000D01*
X167811904Y-92015000D02*
X167764285Y-92062619D01*
X167764285Y-92062619D02*
X167716666Y-92157857D01*
X167716666Y-92157857D02*
X167716666Y-92300714D01*
X167716666Y-92300714D02*
X167764285Y-92395952D01*
X167764285Y-92395952D02*
X167811904Y-92443571D01*
X167811904Y-92443571D02*
X167907142Y-92491190D01*
X167907142Y-92491190D02*
X168288094Y-92491190D01*
X167145237Y-92395952D02*
X167240475Y-92348333D01*
X167240475Y-92348333D02*
X167288094Y-92300714D01*
X167288094Y-92300714D02*
X167335713Y-92205476D01*
X167335713Y-92205476D02*
X167335713Y-92157857D01*
X167335713Y-92157857D02*
X167288094Y-92062619D01*
X167288094Y-92062619D02*
X167240475Y-92015000D01*
X167240475Y-92015000D02*
X167145237Y-91967380D01*
X167145237Y-91967380D02*
X166954761Y-91967380D01*
X166954761Y-91967380D02*
X166859523Y-92015000D01*
X166859523Y-92015000D02*
X166811904Y-92062619D01*
X166811904Y-92062619D02*
X166764285Y-92157857D01*
X166764285Y-92157857D02*
X166764285Y-92205476D01*
X166764285Y-92205476D02*
X166811904Y-92300714D01*
X166811904Y-92300714D02*
X166859523Y-92348333D01*
X166859523Y-92348333D02*
X166954761Y-92395952D01*
X166954761Y-92395952D02*
X167145237Y-92395952D01*
X167145237Y-92395952D02*
X167240475Y-92443571D01*
X167240475Y-92443571D02*
X167288094Y-92491190D01*
X167288094Y-92491190D02*
X167335713Y-92586428D01*
X167335713Y-92586428D02*
X167335713Y-92776904D01*
X167335713Y-92776904D02*
X167288094Y-92872142D01*
X167288094Y-92872142D02*
X167240475Y-92919761D01*
X167240475Y-92919761D02*
X167145237Y-92967380D01*
X167145237Y-92967380D02*
X166954761Y-92967380D01*
X166954761Y-92967380D02*
X166859523Y-92919761D01*
X166859523Y-92919761D02*
X166811904Y-92872142D01*
X166811904Y-92872142D02*
X166764285Y-92776904D01*
X166764285Y-92776904D02*
X166764285Y-92586428D01*
X166764285Y-92586428D02*
X166811904Y-92491190D01*
X166811904Y-92491190D02*
X166859523Y-92443571D01*
X166859523Y-92443571D02*
X166954761Y-92395952D01*
%TO.C,C21*%
X132317857Y-65497142D02*
X132365476Y-65544761D01*
X132365476Y-65544761D02*
X132508333Y-65592380D01*
X132508333Y-65592380D02*
X132603571Y-65592380D01*
X132603571Y-65592380D02*
X132746428Y-65544761D01*
X132746428Y-65544761D02*
X132841666Y-65449523D01*
X132841666Y-65449523D02*
X132889285Y-65354285D01*
X132889285Y-65354285D02*
X132936904Y-65163809D01*
X132936904Y-65163809D02*
X132936904Y-65020952D01*
X132936904Y-65020952D02*
X132889285Y-64830476D01*
X132889285Y-64830476D02*
X132841666Y-64735238D01*
X132841666Y-64735238D02*
X132746428Y-64640000D01*
X132746428Y-64640000D02*
X132603571Y-64592380D01*
X132603571Y-64592380D02*
X132508333Y-64592380D01*
X132508333Y-64592380D02*
X132365476Y-64640000D01*
X132365476Y-64640000D02*
X132317857Y-64687619D01*
X131936904Y-64687619D02*
X131889285Y-64640000D01*
X131889285Y-64640000D02*
X131794047Y-64592380D01*
X131794047Y-64592380D02*
X131555952Y-64592380D01*
X131555952Y-64592380D02*
X131460714Y-64640000D01*
X131460714Y-64640000D02*
X131413095Y-64687619D01*
X131413095Y-64687619D02*
X131365476Y-64782857D01*
X131365476Y-64782857D02*
X131365476Y-64878095D01*
X131365476Y-64878095D02*
X131413095Y-65020952D01*
X131413095Y-65020952D02*
X131984523Y-65592380D01*
X131984523Y-65592380D02*
X131365476Y-65592380D01*
X130413095Y-65592380D02*
X130984523Y-65592380D01*
X130698809Y-65592380D02*
X130698809Y-64592380D01*
X130698809Y-64592380D02*
X130794047Y-64735238D01*
X130794047Y-64735238D02*
X130889285Y-64830476D01*
X130889285Y-64830476D02*
X130984523Y-64878095D01*
%TO.C,C1*%
X162816666Y-105172142D02*
X162864285Y-105219761D01*
X162864285Y-105219761D02*
X163007142Y-105267380D01*
X163007142Y-105267380D02*
X163102380Y-105267380D01*
X163102380Y-105267380D02*
X163245237Y-105219761D01*
X163245237Y-105219761D02*
X163340475Y-105124523D01*
X163340475Y-105124523D02*
X163388094Y-105029285D01*
X163388094Y-105029285D02*
X163435713Y-104838809D01*
X163435713Y-104838809D02*
X163435713Y-104695952D01*
X163435713Y-104695952D02*
X163388094Y-104505476D01*
X163388094Y-104505476D02*
X163340475Y-104410238D01*
X163340475Y-104410238D02*
X163245237Y-104315000D01*
X163245237Y-104315000D02*
X163102380Y-104267380D01*
X163102380Y-104267380D02*
X163007142Y-104267380D01*
X163007142Y-104267380D02*
X162864285Y-104315000D01*
X162864285Y-104315000D02*
X162816666Y-104362619D01*
X161864285Y-105267380D02*
X162435713Y-105267380D01*
X162149999Y-105267380D02*
X162149999Y-104267380D01*
X162149999Y-104267380D02*
X162245237Y-104410238D01*
X162245237Y-104410238D02*
X162340475Y-104505476D01*
X162340475Y-104505476D02*
X162435713Y-104553095D01*
%TO.C,C19*%
X170242857Y-99922142D02*
X170290476Y-99969761D01*
X170290476Y-99969761D02*
X170433333Y-100017380D01*
X170433333Y-100017380D02*
X170528571Y-100017380D01*
X170528571Y-100017380D02*
X170671428Y-99969761D01*
X170671428Y-99969761D02*
X170766666Y-99874523D01*
X170766666Y-99874523D02*
X170814285Y-99779285D01*
X170814285Y-99779285D02*
X170861904Y-99588809D01*
X170861904Y-99588809D02*
X170861904Y-99445952D01*
X170861904Y-99445952D02*
X170814285Y-99255476D01*
X170814285Y-99255476D02*
X170766666Y-99160238D01*
X170766666Y-99160238D02*
X170671428Y-99065000D01*
X170671428Y-99065000D02*
X170528571Y-99017380D01*
X170528571Y-99017380D02*
X170433333Y-99017380D01*
X170433333Y-99017380D02*
X170290476Y-99065000D01*
X170290476Y-99065000D02*
X170242857Y-99112619D01*
X169290476Y-100017380D02*
X169861904Y-100017380D01*
X169576190Y-100017380D02*
X169576190Y-99017380D01*
X169576190Y-99017380D02*
X169671428Y-99160238D01*
X169671428Y-99160238D02*
X169766666Y-99255476D01*
X169766666Y-99255476D02*
X169861904Y-99303095D01*
X168814285Y-100017380D02*
X168623809Y-100017380D01*
X168623809Y-100017380D02*
X168528571Y-99969761D01*
X168528571Y-99969761D02*
X168480952Y-99922142D01*
X168480952Y-99922142D02*
X168385714Y-99779285D01*
X168385714Y-99779285D02*
X168338095Y-99588809D01*
X168338095Y-99588809D02*
X168338095Y-99207857D01*
X168338095Y-99207857D02*
X168385714Y-99112619D01*
X168385714Y-99112619D02*
X168433333Y-99065000D01*
X168433333Y-99065000D02*
X168528571Y-99017380D01*
X168528571Y-99017380D02*
X168719047Y-99017380D01*
X168719047Y-99017380D02*
X168814285Y-99065000D01*
X168814285Y-99065000D02*
X168861904Y-99112619D01*
X168861904Y-99112619D02*
X168909523Y-99207857D01*
X168909523Y-99207857D02*
X168909523Y-99445952D01*
X168909523Y-99445952D02*
X168861904Y-99541190D01*
X168861904Y-99541190D02*
X168814285Y-99588809D01*
X168814285Y-99588809D02*
X168719047Y-99636428D01*
X168719047Y-99636428D02*
X168528571Y-99636428D01*
X168528571Y-99636428D02*
X168433333Y-99588809D01*
X168433333Y-99588809D02*
X168385714Y-99541190D01*
X168385714Y-99541190D02*
X168338095Y-99445952D01*
%TO.C,C2*%
X160841666Y-91372142D02*
X160889285Y-91419761D01*
X160889285Y-91419761D02*
X161032142Y-91467380D01*
X161032142Y-91467380D02*
X161127380Y-91467380D01*
X161127380Y-91467380D02*
X161270237Y-91419761D01*
X161270237Y-91419761D02*
X161365475Y-91324523D01*
X161365475Y-91324523D02*
X161413094Y-91229285D01*
X161413094Y-91229285D02*
X161460713Y-91038809D01*
X161460713Y-91038809D02*
X161460713Y-90895952D01*
X161460713Y-90895952D02*
X161413094Y-90705476D01*
X161413094Y-90705476D02*
X161365475Y-90610238D01*
X161365475Y-90610238D02*
X161270237Y-90515000D01*
X161270237Y-90515000D02*
X161127380Y-90467380D01*
X161127380Y-90467380D02*
X161032142Y-90467380D01*
X161032142Y-90467380D02*
X160889285Y-90515000D01*
X160889285Y-90515000D02*
X160841666Y-90562619D01*
X160460713Y-90562619D02*
X160413094Y-90515000D01*
X160413094Y-90515000D02*
X160317856Y-90467380D01*
X160317856Y-90467380D02*
X160079761Y-90467380D01*
X160079761Y-90467380D02*
X159984523Y-90515000D01*
X159984523Y-90515000D02*
X159936904Y-90562619D01*
X159936904Y-90562619D02*
X159889285Y-90657857D01*
X159889285Y-90657857D02*
X159889285Y-90753095D01*
X159889285Y-90753095D02*
X159936904Y-90895952D01*
X159936904Y-90895952D02*
X160508332Y-91467380D01*
X160508332Y-91467380D02*
X159889285Y-91467380D01*
%TO.C,C9*%
X157941666Y-103847142D02*
X157989285Y-103894761D01*
X157989285Y-103894761D02*
X158132142Y-103942380D01*
X158132142Y-103942380D02*
X158227380Y-103942380D01*
X158227380Y-103942380D02*
X158370237Y-103894761D01*
X158370237Y-103894761D02*
X158465475Y-103799523D01*
X158465475Y-103799523D02*
X158513094Y-103704285D01*
X158513094Y-103704285D02*
X158560713Y-103513809D01*
X158560713Y-103513809D02*
X158560713Y-103370952D01*
X158560713Y-103370952D02*
X158513094Y-103180476D01*
X158513094Y-103180476D02*
X158465475Y-103085238D01*
X158465475Y-103085238D02*
X158370237Y-102990000D01*
X158370237Y-102990000D02*
X158227380Y-102942380D01*
X158227380Y-102942380D02*
X158132142Y-102942380D01*
X158132142Y-102942380D02*
X157989285Y-102990000D01*
X157989285Y-102990000D02*
X157941666Y-103037619D01*
X157465475Y-103942380D02*
X157274999Y-103942380D01*
X157274999Y-103942380D02*
X157179761Y-103894761D01*
X157179761Y-103894761D02*
X157132142Y-103847142D01*
X157132142Y-103847142D02*
X157036904Y-103704285D01*
X157036904Y-103704285D02*
X156989285Y-103513809D01*
X156989285Y-103513809D02*
X156989285Y-103132857D01*
X156989285Y-103132857D02*
X157036904Y-103037619D01*
X157036904Y-103037619D02*
X157084523Y-102990000D01*
X157084523Y-102990000D02*
X157179761Y-102942380D01*
X157179761Y-102942380D02*
X157370237Y-102942380D01*
X157370237Y-102942380D02*
X157465475Y-102990000D01*
X157465475Y-102990000D02*
X157513094Y-103037619D01*
X157513094Y-103037619D02*
X157560713Y-103132857D01*
X157560713Y-103132857D02*
X157560713Y-103370952D01*
X157560713Y-103370952D02*
X157513094Y-103466190D01*
X157513094Y-103466190D02*
X157465475Y-103513809D01*
X157465475Y-103513809D02*
X157370237Y-103561428D01*
X157370237Y-103561428D02*
X157179761Y-103561428D01*
X157179761Y-103561428D02*
X157084523Y-103513809D01*
X157084523Y-103513809D02*
X157036904Y-103466190D01*
X157036904Y-103466190D02*
X156989285Y-103370952D01*
%TO.C,R1*%
X117566666Y-61067380D02*
X117899999Y-60591190D01*
X118138094Y-61067380D02*
X118138094Y-60067380D01*
X118138094Y-60067380D02*
X117757142Y-60067380D01*
X117757142Y-60067380D02*
X117661904Y-60115000D01*
X117661904Y-60115000D02*
X117614285Y-60162619D01*
X117614285Y-60162619D02*
X117566666Y-60257857D01*
X117566666Y-60257857D02*
X117566666Y-60400714D01*
X117566666Y-60400714D02*
X117614285Y-60495952D01*
X117614285Y-60495952D02*
X117661904Y-60543571D01*
X117661904Y-60543571D02*
X117757142Y-60591190D01*
X117757142Y-60591190D02*
X118138094Y-60591190D01*
X116614285Y-61067380D02*
X117185713Y-61067380D01*
X116899999Y-61067380D02*
X116899999Y-60067380D01*
X116899999Y-60067380D02*
X116995237Y-60210238D01*
X116995237Y-60210238D02*
X117090475Y-60305476D01*
X117090475Y-60305476D02*
X117185713Y-60353095D01*
%TO.C,C10*%
X153417857Y-95897142D02*
X153465476Y-95944761D01*
X153465476Y-95944761D02*
X153608333Y-95992380D01*
X153608333Y-95992380D02*
X153703571Y-95992380D01*
X153703571Y-95992380D02*
X153846428Y-95944761D01*
X153846428Y-95944761D02*
X153941666Y-95849523D01*
X153941666Y-95849523D02*
X153989285Y-95754285D01*
X153989285Y-95754285D02*
X154036904Y-95563809D01*
X154036904Y-95563809D02*
X154036904Y-95420952D01*
X154036904Y-95420952D02*
X153989285Y-95230476D01*
X153989285Y-95230476D02*
X153941666Y-95135238D01*
X153941666Y-95135238D02*
X153846428Y-95040000D01*
X153846428Y-95040000D02*
X153703571Y-94992380D01*
X153703571Y-94992380D02*
X153608333Y-94992380D01*
X153608333Y-94992380D02*
X153465476Y-95040000D01*
X153465476Y-95040000D02*
X153417857Y-95087619D01*
X152465476Y-95992380D02*
X153036904Y-95992380D01*
X152751190Y-95992380D02*
X152751190Y-94992380D01*
X152751190Y-94992380D02*
X152846428Y-95135238D01*
X152846428Y-95135238D02*
X152941666Y-95230476D01*
X152941666Y-95230476D02*
X153036904Y-95278095D01*
X151846428Y-94992380D02*
X151751190Y-94992380D01*
X151751190Y-94992380D02*
X151655952Y-95040000D01*
X151655952Y-95040000D02*
X151608333Y-95087619D01*
X151608333Y-95087619D02*
X151560714Y-95182857D01*
X151560714Y-95182857D02*
X151513095Y-95373333D01*
X151513095Y-95373333D02*
X151513095Y-95611428D01*
X151513095Y-95611428D02*
X151560714Y-95801904D01*
X151560714Y-95801904D02*
X151608333Y-95897142D01*
X151608333Y-95897142D02*
X151655952Y-95944761D01*
X151655952Y-95944761D02*
X151751190Y-95992380D01*
X151751190Y-95992380D02*
X151846428Y-95992380D01*
X151846428Y-95992380D02*
X151941666Y-95944761D01*
X151941666Y-95944761D02*
X151989285Y-95897142D01*
X151989285Y-95897142D02*
X152036904Y-95801904D01*
X152036904Y-95801904D02*
X152084523Y-95611428D01*
X152084523Y-95611428D02*
X152084523Y-95373333D01*
X152084523Y-95373333D02*
X152036904Y-95182857D01*
X152036904Y-95182857D02*
X151989285Y-95087619D01*
X151989285Y-95087619D02*
X151941666Y-95040000D01*
X151941666Y-95040000D02*
X151846428Y-94992380D01*
%TO.C,U5*%
X156286904Y-100792380D02*
X156286904Y-101601904D01*
X156286904Y-101601904D02*
X156239285Y-101697142D01*
X156239285Y-101697142D02*
X156191666Y-101744761D01*
X156191666Y-101744761D02*
X156096428Y-101792380D01*
X156096428Y-101792380D02*
X155905952Y-101792380D01*
X155905952Y-101792380D02*
X155810714Y-101744761D01*
X155810714Y-101744761D02*
X155763095Y-101697142D01*
X155763095Y-101697142D02*
X155715476Y-101601904D01*
X155715476Y-101601904D02*
X155715476Y-100792380D01*
X154763095Y-100792380D02*
X155239285Y-100792380D01*
X155239285Y-100792380D02*
X155286904Y-101268571D01*
X155286904Y-101268571D02*
X155239285Y-101220952D01*
X155239285Y-101220952D02*
X155144047Y-101173333D01*
X155144047Y-101173333D02*
X154905952Y-101173333D01*
X154905952Y-101173333D02*
X154810714Y-101220952D01*
X154810714Y-101220952D02*
X154763095Y-101268571D01*
X154763095Y-101268571D02*
X154715476Y-101363809D01*
X154715476Y-101363809D02*
X154715476Y-101601904D01*
X154715476Y-101601904D02*
X154763095Y-101697142D01*
X154763095Y-101697142D02*
X154810714Y-101744761D01*
X154810714Y-101744761D02*
X154905952Y-101792380D01*
X154905952Y-101792380D02*
X155144047Y-101792380D01*
X155144047Y-101792380D02*
X155239285Y-101744761D01*
X155239285Y-101744761D02*
X155286904Y-101697142D01*
%TO.C,U9*%
X158636904Y-67867380D02*
X158636904Y-68676904D01*
X158636904Y-68676904D02*
X158589285Y-68772142D01*
X158589285Y-68772142D02*
X158541666Y-68819761D01*
X158541666Y-68819761D02*
X158446428Y-68867380D01*
X158446428Y-68867380D02*
X158255952Y-68867380D01*
X158255952Y-68867380D02*
X158160714Y-68819761D01*
X158160714Y-68819761D02*
X158113095Y-68772142D01*
X158113095Y-68772142D02*
X158065476Y-68676904D01*
X158065476Y-68676904D02*
X158065476Y-67867380D01*
X157541666Y-68867380D02*
X157351190Y-68867380D01*
X157351190Y-68867380D02*
X157255952Y-68819761D01*
X157255952Y-68819761D02*
X157208333Y-68772142D01*
X157208333Y-68772142D02*
X157113095Y-68629285D01*
X157113095Y-68629285D02*
X157065476Y-68438809D01*
X157065476Y-68438809D02*
X157065476Y-68057857D01*
X157065476Y-68057857D02*
X157113095Y-67962619D01*
X157113095Y-67962619D02*
X157160714Y-67915000D01*
X157160714Y-67915000D02*
X157255952Y-67867380D01*
X157255952Y-67867380D02*
X157446428Y-67867380D01*
X157446428Y-67867380D02*
X157541666Y-67915000D01*
X157541666Y-67915000D02*
X157589285Y-67962619D01*
X157589285Y-67962619D02*
X157636904Y-68057857D01*
X157636904Y-68057857D02*
X157636904Y-68295952D01*
X157636904Y-68295952D02*
X157589285Y-68391190D01*
X157589285Y-68391190D02*
X157541666Y-68438809D01*
X157541666Y-68438809D02*
X157446428Y-68486428D01*
X157446428Y-68486428D02*
X157255952Y-68486428D01*
X157255952Y-68486428D02*
X157160714Y-68438809D01*
X157160714Y-68438809D02*
X157113095Y-68391190D01*
X157113095Y-68391190D02*
X157065476Y-68295952D01*
%TO.C,C7*%
X161191666Y-105172142D02*
X161239285Y-105219761D01*
X161239285Y-105219761D02*
X161382142Y-105267380D01*
X161382142Y-105267380D02*
X161477380Y-105267380D01*
X161477380Y-105267380D02*
X161620237Y-105219761D01*
X161620237Y-105219761D02*
X161715475Y-105124523D01*
X161715475Y-105124523D02*
X161763094Y-105029285D01*
X161763094Y-105029285D02*
X161810713Y-104838809D01*
X161810713Y-104838809D02*
X161810713Y-104695952D01*
X161810713Y-104695952D02*
X161763094Y-104505476D01*
X161763094Y-104505476D02*
X161715475Y-104410238D01*
X161715475Y-104410238D02*
X161620237Y-104315000D01*
X161620237Y-104315000D02*
X161477380Y-104267380D01*
X161477380Y-104267380D02*
X161382142Y-104267380D01*
X161382142Y-104267380D02*
X161239285Y-104315000D01*
X161239285Y-104315000D02*
X161191666Y-104362619D01*
X160858332Y-104267380D02*
X160191666Y-104267380D01*
X160191666Y-104267380D02*
X160620237Y-105267380D01*
%TO.C,C20*%
X177767857Y-72272142D02*
X177815476Y-72319761D01*
X177815476Y-72319761D02*
X177958333Y-72367380D01*
X177958333Y-72367380D02*
X178053571Y-72367380D01*
X178053571Y-72367380D02*
X178196428Y-72319761D01*
X178196428Y-72319761D02*
X178291666Y-72224523D01*
X178291666Y-72224523D02*
X178339285Y-72129285D01*
X178339285Y-72129285D02*
X178386904Y-71938809D01*
X178386904Y-71938809D02*
X178386904Y-71795952D01*
X178386904Y-71795952D02*
X178339285Y-71605476D01*
X178339285Y-71605476D02*
X178291666Y-71510238D01*
X178291666Y-71510238D02*
X178196428Y-71415000D01*
X178196428Y-71415000D02*
X178053571Y-71367380D01*
X178053571Y-71367380D02*
X177958333Y-71367380D01*
X177958333Y-71367380D02*
X177815476Y-71415000D01*
X177815476Y-71415000D02*
X177767857Y-71462619D01*
X177386904Y-71462619D02*
X177339285Y-71415000D01*
X177339285Y-71415000D02*
X177244047Y-71367380D01*
X177244047Y-71367380D02*
X177005952Y-71367380D01*
X177005952Y-71367380D02*
X176910714Y-71415000D01*
X176910714Y-71415000D02*
X176863095Y-71462619D01*
X176863095Y-71462619D02*
X176815476Y-71557857D01*
X176815476Y-71557857D02*
X176815476Y-71653095D01*
X176815476Y-71653095D02*
X176863095Y-71795952D01*
X176863095Y-71795952D02*
X177434523Y-72367380D01*
X177434523Y-72367380D02*
X176815476Y-72367380D01*
X176196428Y-71367380D02*
X176101190Y-71367380D01*
X176101190Y-71367380D02*
X176005952Y-71415000D01*
X176005952Y-71415000D02*
X175958333Y-71462619D01*
X175958333Y-71462619D02*
X175910714Y-71557857D01*
X175910714Y-71557857D02*
X175863095Y-71748333D01*
X175863095Y-71748333D02*
X175863095Y-71986428D01*
X175863095Y-71986428D02*
X175910714Y-72176904D01*
X175910714Y-72176904D02*
X175958333Y-72272142D01*
X175958333Y-72272142D02*
X176005952Y-72319761D01*
X176005952Y-72319761D02*
X176101190Y-72367380D01*
X176101190Y-72367380D02*
X176196428Y-72367380D01*
X176196428Y-72367380D02*
X176291666Y-72319761D01*
X176291666Y-72319761D02*
X176339285Y-72272142D01*
X176339285Y-72272142D02*
X176386904Y-72176904D01*
X176386904Y-72176904D02*
X176434523Y-71986428D01*
X176434523Y-71986428D02*
X176434523Y-71748333D01*
X176434523Y-71748333D02*
X176386904Y-71557857D01*
X176386904Y-71557857D02*
X176339285Y-71462619D01*
X176339285Y-71462619D02*
X176291666Y-71415000D01*
X176291666Y-71415000D02*
X176196428Y-71367380D01*
%TO.C,C25*%
X159267857Y-61772142D02*
X159315476Y-61819761D01*
X159315476Y-61819761D02*
X159458333Y-61867380D01*
X159458333Y-61867380D02*
X159553571Y-61867380D01*
X159553571Y-61867380D02*
X159696428Y-61819761D01*
X159696428Y-61819761D02*
X159791666Y-61724523D01*
X159791666Y-61724523D02*
X159839285Y-61629285D01*
X159839285Y-61629285D02*
X159886904Y-61438809D01*
X159886904Y-61438809D02*
X159886904Y-61295952D01*
X159886904Y-61295952D02*
X159839285Y-61105476D01*
X159839285Y-61105476D02*
X159791666Y-61010238D01*
X159791666Y-61010238D02*
X159696428Y-60915000D01*
X159696428Y-60915000D02*
X159553571Y-60867380D01*
X159553571Y-60867380D02*
X159458333Y-60867380D01*
X159458333Y-60867380D02*
X159315476Y-60915000D01*
X159315476Y-60915000D02*
X159267857Y-60962619D01*
X158886904Y-60962619D02*
X158839285Y-60915000D01*
X158839285Y-60915000D02*
X158744047Y-60867380D01*
X158744047Y-60867380D02*
X158505952Y-60867380D01*
X158505952Y-60867380D02*
X158410714Y-60915000D01*
X158410714Y-60915000D02*
X158363095Y-60962619D01*
X158363095Y-60962619D02*
X158315476Y-61057857D01*
X158315476Y-61057857D02*
X158315476Y-61153095D01*
X158315476Y-61153095D02*
X158363095Y-61295952D01*
X158363095Y-61295952D02*
X158934523Y-61867380D01*
X158934523Y-61867380D02*
X158315476Y-61867380D01*
X157410714Y-60867380D02*
X157886904Y-60867380D01*
X157886904Y-60867380D02*
X157934523Y-61343571D01*
X157934523Y-61343571D02*
X157886904Y-61295952D01*
X157886904Y-61295952D02*
X157791666Y-61248333D01*
X157791666Y-61248333D02*
X157553571Y-61248333D01*
X157553571Y-61248333D02*
X157458333Y-61295952D01*
X157458333Y-61295952D02*
X157410714Y-61343571D01*
X157410714Y-61343571D02*
X157363095Y-61438809D01*
X157363095Y-61438809D02*
X157363095Y-61676904D01*
X157363095Y-61676904D02*
X157410714Y-61772142D01*
X157410714Y-61772142D02*
X157458333Y-61819761D01*
X157458333Y-61819761D02*
X157553571Y-61867380D01*
X157553571Y-61867380D02*
X157791666Y-61867380D01*
X157791666Y-61867380D02*
X157886904Y-61819761D01*
X157886904Y-61819761D02*
X157934523Y-61772142D01*
%TO.C,C22*%
X153392857Y-91367142D02*
X153440476Y-91414761D01*
X153440476Y-91414761D02*
X153583333Y-91462380D01*
X153583333Y-91462380D02*
X153678571Y-91462380D01*
X153678571Y-91462380D02*
X153821428Y-91414761D01*
X153821428Y-91414761D02*
X153916666Y-91319523D01*
X153916666Y-91319523D02*
X153964285Y-91224285D01*
X153964285Y-91224285D02*
X154011904Y-91033809D01*
X154011904Y-91033809D02*
X154011904Y-90890952D01*
X154011904Y-90890952D02*
X153964285Y-90700476D01*
X153964285Y-90700476D02*
X153916666Y-90605238D01*
X153916666Y-90605238D02*
X153821428Y-90510000D01*
X153821428Y-90510000D02*
X153678571Y-90462380D01*
X153678571Y-90462380D02*
X153583333Y-90462380D01*
X153583333Y-90462380D02*
X153440476Y-90510000D01*
X153440476Y-90510000D02*
X153392857Y-90557619D01*
X153011904Y-90557619D02*
X152964285Y-90510000D01*
X152964285Y-90510000D02*
X152869047Y-90462380D01*
X152869047Y-90462380D02*
X152630952Y-90462380D01*
X152630952Y-90462380D02*
X152535714Y-90510000D01*
X152535714Y-90510000D02*
X152488095Y-90557619D01*
X152488095Y-90557619D02*
X152440476Y-90652857D01*
X152440476Y-90652857D02*
X152440476Y-90748095D01*
X152440476Y-90748095D02*
X152488095Y-90890952D01*
X152488095Y-90890952D02*
X153059523Y-91462380D01*
X153059523Y-91462380D02*
X152440476Y-91462380D01*
X152059523Y-90557619D02*
X152011904Y-90510000D01*
X152011904Y-90510000D02*
X151916666Y-90462380D01*
X151916666Y-90462380D02*
X151678571Y-90462380D01*
X151678571Y-90462380D02*
X151583333Y-90510000D01*
X151583333Y-90510000D02*
X151535714Y-90557619D01*
X151535714Y-90557619D02*
X151488095Y-90652857D01*
X151488095Y-90652857D02*
X151488095Y-90748095D01*
X151488095Y-90748095D02*
X151535714Y-90890952D01*
X151535714Y-90890952D02*
X152107142Y-91462380D01*
X152107142Y-91462380D02*
X151488095Y-91462380D01*
%TO.C,R10*%
X132392857Y-67117380D02*
X132726190Y-66641190D01*
X132964285Y-67117380D02*
X132964285Y-66117380D01*
X132964285Y-66117380D02*
X132583333Y-66117380D01*
X132583333Y-66117380D02*
X132488095Y-66165000D01*
X132488095Y-66165000D02*
X132440476Y-66212619D01*
X132440476Y-66212619D02*
X132392857Y-66307857D01*
X132392857Y-66307857D02*
X132392857Y-66450714D01*
X132392857Y-66450714D02*
X132440476Y-66545952D01*
X132440476Y-66545952D02*
X132488095Y-66593571D01*
X132488095Y-66593571D02*
X132583333Y-66641190D01*
X132583333Y-66641190D02*
X132964285Y-66641190D01*
X131440476Y-67117380D02*
X132011904Y-67117380D01*
X131726190Y-67117380D02*
X131726190Y-66117380D01*
X131726190Y-66117380D02*
X131821428Y-66260238D01*
X131821428Y-66260238D02*
X131916666Y-66355476D01*
X131916666Y-66355476D02*
X132011904Y-66403095D01*
X130821428Y-66117380D02*
X130726190Y-66117380D01*
X130726190Y-66117380D02*
X130630952Y-66165000D01*
X130630952Y-66165000D02*
X130583333Y-66212619D01*
X130583333Y-66212619D02*
X130535714Y-66307857D01*
X130535714Y-66307857D02*
X130488095Y-66498333D01*
X130488095Y-66498333D02*
X130488095Y-66736428D01*
X130488095Y-66736428D02*
X130535714Y-66926904D01*
X130535714Y-66926904D02*
X130583333Y-67022142D01*
X130583333Y-67022142D02*
X130630952Y-67069761D01*
X130630952Y-67069761D02*
X130726190Y-67117380D01*
X130726190Y-67117380D02*
X130821428Y-67117380D01*
X130821428Y-67117380D02*
X130916666Y-67069761D01*
X130916666Y-67069761D02*
X130964285Y-67022142D01*
X130964285Y-67022142D02*
X131011904Y-66926904D01*
X131011904Y-66926904D02*
X131059523Y-66736428D01*
X131059523Y-66736428D02*
X131059523Y-66498333D01*
X131059523Y-66498333D02*
X131011904Y-66307857D01*
X131011904Y-66307857D02*
X130964285Y-66212619D01*
X130964285Y-66212619D02*
X130916666Y-66165000D01*
X130916666Y-66165000D02*
X130821428Y-66117380D01*
%TO.C,C8*%
X126341666Y-65522142D02*
X126389285Y-65569761D01*
X126389285Y-65569761D02*
X126532142Y-65617380D01*
X126532142Y-65617380D02*
X126627380Y-65617380D01*
X126627380Y-65617380D02*
X126770237Y-65569761D01*
X126770237Y-65569761D02*
X126865475Y-65474523D01*
X126865475Y-65474523D02*
X126913094Y-65379285D01*
X126913094Y-65379285D02*
X126960713Y-65188809D01*
X126960713Y-65188809D02*
X126960713Y-65045952D01*
X126960713Y-65045952D02*
X126913094Y-64855476D01*
X126913094Y-64855476D02*
X126865475Y-64760238D01*
X126865475Y-64760238D02*
X126770237Y-64665000D01*
X126770237Y-64665000D02*
X126627380Y-64617380D01*
X126627380Y-64617380D02*
X126532142Y-64617380D01*
X126532142Y-64617380D02*
X126389285Y-64665000D01*
X126389285Y-64665000D02*
X126341666Y-64712619D01*
X125770237Y-65045952D02*
X125865475Y-64998333D01*
X125865475Y-64998333D02*
X125913094Y-64950714D01*
X125913094Y-64950714D02*
X125960713Y-64855476D01*
X125960713Y-64855476D02*
X125960713Y-64807857D01*
X125960713Y-64807857D02*
X125913094Y-64712619D01*
X125913094Y-64712619D02*
X125865475Y-64665000D01*
X125865475Y-64665000D02*
X125770237Y-64617380D01*
X125770237Y-64617380D02*
X125579761Y-64617380D01*
X125579761Y-64617380D02*
X125484523Y-64665000D01*
X125484523Y-64665000D02*
X125436904Y-64712619D01*
X125436904Y-64712619D02*
X125389285Y-64807857D01*
X125389285Y-64807857D02*
X125389285Y-64855476D01*
X125389285Y-64855476D02*
X125436904Y-64950714D01*
X125436904Y-64950714D02*
X125484523Y-64998333D01*
X125484523Y-64998333D02*
X125579761Y-65045952D01*
X125579761Y-65045952D02*
X125770237Y-65045952D01*
X125770237Y-65045952D02*
X125865475Y-65093571D01*
X125865475Y-65093571D02*
X125913094Y-65141190D01*
X125913094Y-65141190D02*
X125960713Y-65236428D01*
X125960713Y-65236428D02*
X125960713Y-65426904D01*
X125960713Y-65426904D02*
X125913094Y-65522142D01*
X125913094Y-65522142D02*
X125865475Y-65569761D01*
X125865475Y-65569761D02*
X125770237Y-65617380D01*
X125770237Y-65617380D02*
X125579761Y-65617380D01*
X125579761Y-65617380D02*
X125484523Y-65569761D01*
X125484523Y-65569761D02*
X125436904Y-65522142D01*
X125436904Y-65522142D02*
X125389285Y-65426904D01*
X125389285Y-65426904D02*
X125389285Y-65236428D01*
X125389285Y-65236428D02*
X125436904Y-65141190D01*
X125436904Y-65141190D02*
X125484523Y-65093571D01*
X125484523Y-65093571D02*
X125579761Y-65045952D01*
D11*
%TO.C,U1*%
X117130000Y-75275000D02*
X117130000Y-77225000D01*
X117130000Y-75275000D02*
X117130000Y-73325000D01*
X122250000Y-75275000D02*
X122250000Y-78725000D01*
X122250000Y-75275000D02*
X122250000Y-73325000D01*
%TO.C,C3*%
X166990580Y-73610000D02*
X166709420Y-73610000D01*
X166990580Y-72590000D02*
X166709420Y-72590000D01*
%TO.C,C12*%
X124090580Y-69860000D02*
X123809420Y-69860000D01*
X124090580Y-68840000D02*
X123809420Y-68840000D01*
%TO.C,C14*%
X109990580Y-73310000D02*
X109709420Y-73310000D01*
X109990580Y-72290000D02*
X109709420Y-72290000D01*
%TO.C,Y1*%
X162940000Y-100675000D02*
X162940000Y-95675000D01*
X166360000Y-100675000D02*
X166360000Y-95675000D01*
%TO.C,C6*%
X164485000Y-102559420D02*
X164485000Y-102840580D01*
X163465000Y-102559420D02*
X163465000Y-102840580D01*
%TO.C,R9*%
X173962742Y-69902500D02*
X174437258Y-69902500D01*
X173962742Y-70947500D02*
X174437258Y-70947500D01*
%TO.C,R2*%
X116312258Y-65272500D02*
X115837742Y-65272500D01*
X116312258Y-64227500D02*
X115837742Y-64227500D01*
%TO.C,C4*%
X152465580Y-100585000D02*
X152184420Y-100585000D01*
X152465580Y-99565000D02*
X152184420Y-99565000D01*
%TO.C,R6*%
X155962742Y-106027500D02*
X156437258Y-106027500D01*
X155962742Y-107072500D02*
X156437258Y-107072500D01*
%TO.C,R3*%
X119817500Y-81087258D02*
X119817500Y-80612742D01*
X120862500Y-81087258D02*
X120862500Y-80612742D01*
%TO.C,C16*%
X164934420Y-93565000D02*
X165215580Y-93565000D01*
X164934420Y-94585000D02*
X165215580Y-94585000D01*
%TO.C,U2*%
X125650000Y-76960000D02*
X126450000Y-76960000D01*
X125650000Y-76960000D02*
X124850000Y-76960000D01*
X125650000Y-73840000D02*
X127450000Y-73840000D01*
X125650000Y-73840000D02*
X124850000Y-73840000D01*
%TO.C,R7*%
X156437258Y-105472500D02*
X155962742Y-105472500D01*
X156437258Y-104427500D02*
X155962742Y-104427500D01*
%TO.C,C13*%
X124140580Y-71460000D02*
X123859420Y-71460000D01*
X124140580Y-70440000D02*
X123859420Y-70440000D01*
%TO.C,C18*%
X167885000Y-96534420D02*
X167885000Y-96815580D01*
X166865000Y-96534420D02*
X166865000Y-96815580D01*
%TO.C,R8*%
X165312258Y-93022500D02*
X164837742Y-93022500D01*
X165312258Y-91977500D02*
X164837742Y-91977500D01*
%TO.C,C21*%
X128915580Y-65760000D02*
X128634420Y-65760000D01*
X128915580Y-64740000D02*
X128634420Y-64740000D01*
%TO.C,C1*%
X163010000Y-102559420D02*
X163010000Y-102840580D01*
X161990000Y-102559420D02*
X161990000Y-102840580D01*
%TO.C,C19*%
X166865000Y-99790580D02*
X166865000Y-99509420D01*
X167885000Y-99790580D02*
X167885000Y-99509420D01*
%TO.C,C2*%
X160534420Y-91865000D02*
X160815580Y-91865000D01*
X160534420Y-92885000D02*
X160815580Y-92885000D01*
%TO.C,C9*%
X160060000Y-102559420D02*
X160060000Y-102840580D01*
X159040000Y-102559420D02*
X159040000Y-102840580D01*
%TO.C,R1*%
X117187742Y-61377500D02*
X117662258Y-61377500D01*
X117187742Y-62422500D02*
X117662258Y-62422500D01*
%TO.C,C10*%
X152915580Y-94635000D02*
X152634420Y-94635000D01*
X152915580Y-93615000D02*
X152634420Y-93615000D01*
D12*
%TO.C,U5*%
X161373000Y-99943000D02*
X160931000Y-99943000D01*
X161373000Y-99501000D02*
X161373000Y-99943000D01*
X161373000Y-93847000D02*
X161373000Y-94289000D01*
X160931000Y-93847000D02*
X161373000Y-93847000D01*
X160931000Y-93847000D02*
X160992000Y-93847000D01*
X155719000Y-99943000D02*
X155277000Y-99943000D01*
X155277000Y-99943000D02*
X155277000Y-99501000D01*
X155277000Y-94289000D02*
X155277000Y-93847000D01*
X155277000Y-93847000D02*
X155719000Y-93847000D01*
X161373000Y-100451000D02*
G75*
G03*
X161373000Y-100451000I-127000J0D01*
G01*
D11*
%TO.C,U9*%
X157325000Y-67655000D02*
X159275000Y-67655000D01*
X157325000Y-67655000D02*
X155375000Y-67655000D01*
X157325000Y-62535000D02*
X160775000Y-62535000D01*
X157325000Y-62535000D02*
X155375000Y-62535000D01*
%TO.C,C7*%
X161535000Y-102559420D02*
X161535000Y-102840580D01*
X160515000Y-102559420D02*
X160515000Y-102840580D01*
%TO.C,C20*%
X174059420Y-71465000D02*
X174340580Y-71465000D01*
X174059420Y-72485000D02*
X174340580Y-72485000D01*
%TO.C,C25*%
X155484420Y-60940000D02*
X155765580Y-60940000D01*
X155484420Y-61960000D02*
X155765580Y-61960000D01*
%TO.C,C22*%
X152890580Y-93035000D02*
X152609420Y-93035000D01*
X152890580Y-92015000D02*
X152609420Y-92015000D01*
%TO.C,R10*%
X129012258Y-67347500D02*
X128537742Y-67347500D01*
X129012258Y-66302500D02*
X128537742Y-66302500D01*
%TO.C,C8*%
X123840580Y-65685000D02*
X123559420Y-65685000D01*
X123840580Y-64665000D02*
X123559420Y-64665000D01*
%TD*%
M02*
