%TF.GenerationSoftware,KiCad,Pcbnew,(6.99.0-1665-g4ee6cfe5b6)*%
%TF.CreationDate,2022-04-26T18:14:45+08:00*%
%TF.ProjectId,LightMeherGen2,4c696768-744d-4656-9865-7247656e322e,rev?*%
%TF.SameCoordinates,Original*%
%TF.FileFunction,Soldermask,Top*%
%TF.FilePolarity,Negative*%
%FSLAX46Y46*%
G04 Gerber Fmt 4.6, Leading zero omitted, Abs format (unit mm)*
G04 Created by KiCad (PCBNEW (6.99.0-1665-g4ee6cfe5b6)) date 2022-04-26 18:14:45*
%MOMM*%
%LPD*%
G01*
G04 APERTURE LIST*
G04 Aperture macros list*
%AMRoundRect*
0 Rectangle with rounded corners*
0 $1 Rounding radius*
0 $2 $3 $4 $5 $6 $7 $8 $9 X,Y pos of 4 corners*
0 Add a 4 corners polygon primitive as box body*
4,1,4,$2,$3,$4,$5,$6,$7,$8,$9,$2,$3,0*
0 Add four circle primitives for the rounded corners*
1,1,$1+$1,$2,$3*
1,1,$1+$1,$4,$5*
1,1,$1+$1,$6,$7*
1,1,$1+$1,$8,$9*
0 Add four rect primitives between the rounded corners*
20,1,$1+$1,$2,$3,$4,$5,0*
20,1,$1+$1,$4,$5,$6,$7,0*
20,1,$1+$1,$6,$7,$8,$9,0*
20,1,$1+$1,$8,$9,$2,$3,0*%
%AMFreePoly0*
4,1,35,0.182426,0.877426,0.200000,0.835000,0.200000,0.495000,0.270000,0.495000,0.312426,0.477426,0.330000,0.435000,0.330000,-0.035000,0.312426,-0.077426,0.270000,-0.095000,0.250000,-0.095000,0.250000,-0.265000,0.232426,-0.307426,0.190000,-0.325000,0.170000,-0.325000,0.170000,-0.835000,0.152426,-0.877426,0.110000,-0.895000,-0.150000,-0.895000,-0.192426,-0.877426,-0.210000,-0.835000,
-0.210000,-0.325000,-0.252426,-0.307426,-0.270000,-0.265000,-0.270000,-0.095000,-0.312426,-0.077426,-0.330000,-0.035000,-0.330000,0.435000,-0.312426,0.477426,-0.270000,0.495000,-0.230000,0.495000,-0.230000,0.835000,-0.212426,0.877426,-0.170000,0.895000,0.140000,0.895000,0.182426,0.877426,0.182426,0.877426,$1*%
G04 Aperture macros list end*
%ADD10C,1.440000*%
%ADD11R,1.600000X1.600000*%
%ADD12C,1.600000*%
%ADD13C,3.000000*%
%ADD14R,1.800000X2.600000*%
%ADD15O,1.800000X2.600000*%
%ADD16RoundRect,0.200000X-0.275000X0.200000X-0.275000X-0.200000X0.275000X-0.200000X0.275000X0.200000X0*%
%ADD17RoundRect,0.200000X-0.200000X-0.275000X0.200000X-0.275000X0.200000X0.275000X-0.200000X0.275000X0*%
%ADD18C,0.650000*%
%ADD19R,0.300000X1.150000*%
%ADD20O,1.000000X2.100000*%
%ADD21O,1.000000X1.600000*%
%ADD22RoundRect,0.250000X0.550000X-1.050000X0.550000X1.050000X-0.550000X1.050000X-0.550000X-1.050000X0*%
%ADD23R,0.650000X3.000000*%
%ADD24RoundRect,0.243750X-0.456250X0.243750X-0.456250X-0.243750X0.456250X-0.243750X0.456250X0.243750X0*%
%ADD25R,0.470000X0.318000*%
%ADD26FreePoly0,270.000000*%
%ADD27RoundRect,0.250000X1.500000X0.550000X-1.500000X0.550000X-1.500000X-0.550000X1.500000X-0.550000X0*%
%ADD28R,1.700000X1.700000*%
%ADD29O,1.700000X1.700000*%
%ADD30C,1.700000*%
G04 APERTURE END LIST*
D10*
%TO.C,RV1*%
X113525000Y-86175000D03*
X116065000Y-86175000D03*
X118605000Y-86175000D03*
%TD*%
D11*
%TO.C,SW1*%
X139499999Y-64999999D03*
D12*
X139500000Y-67000000D03*
X139500000Y-69000000D03*
X134500000Y-65000000D03*
X134500000Y-67000000D03*
X134500000Y-69000000D03*
%TD*%
D13*
%TO.C,U8*%
X105500900Y-92642500D03*
X105500900Y-123643200D03*
X180499480Y-123643200D03*
X180500000Y-92642500D03*
D14*
X110999999Y-92642499D03*
D15*
X113539999Y-92642499D03*
X116079999Y-92642499D03*
X118619999Y-92642499D03*
X121159999Y-92642499D03*
X123699999Y-92642499D03*
X126239999Y-92642499D03*
X128779999Y-92642499D03*
X131319999Y-92642499D03*
X133859999Y-92642499D03*
X136399999Y-92642499D03*
X138939999Y-92642499D03*
X141479999Y-92642499D03*
X144019999Y-92642499D03*
X146559999Y-92642499D03*
X149099999Y-92642499D03*
%TD*%
D16*
%TO.C,R5*%
X105725000Y-66025000D03*
X105725000Y-67675000D03*
%TD*%
D11*
%TO.C,SW2*%
X150499999Y-64999999D03*
D12*
X150500000Y-67000000D03*
X150500000Y-69000000D03*
X145500000Y-65000000D03*
X145500000Y-67000000D03*
X145500000Y-69000000D03*
%TD*%
D17*
%TO.C,R11*%
X142525000Y-88875000D03*
X144175000Y-88875000D03*
%TD*%
D18*
%TO.C,J1*%
X119890000Y-66420000D03*
X114110000Y-66420000D03*
D19*
X120349999Y-67484999D03*
X119549999Y-67484999D03*
X118249999Y-67484999D03*
X117249999Y-67484999D03*
X116749999Y-67484999D03*
X115749999Y-67484999D03*
X114449999Y-67484999D03*
X113649999Y-67484999D03*
X113949999Y-67484999D03*
X114749999Y-67484999D03*
X115249999Y-67484999D03*
X116249999Y-67484999D03*
X117749999Y-67484999D03*
X118749999Y-67484999D03*
X119249999Y-67484999D03*
X120049999Y-67484999D03*
D20*
X121319999Y-66919999D03*
D21*
X121319999Y-62739999D03*
D20*
X112679999Y-66919999D03*
D21*
X112679999Y-62739999D03*
%TD*%
D22*
%TO.C,C15*%
X129825000Y-71200000D03*
X129825000Y-67600000D03*
%TD*%
D23*
%TO.C,U4*%
X124449999Y-62649999D03*
X125729999Y-62699999D03*
X126999999Y-62649999D03*
X128269999Y-62649999D03*
X129539999Y-62649999D03*
%TD*%
D24*
%TO.C,D2*%
X105725000Y-60912500D03*
X105725000Y-62787500D03*
%TD*%
D25*
%TO.C,U3*%
X170151999Y-73498999D03*
D26*
X170752000Y-74017000D03*
D25*
X170151999Y-74498999D03*
X171847999Y-74500999D03*
X171847999Y-73500999D03*
%TD*%
D16*
%TO.C,R4*%
X109200000Y-66062500D03*
X109200000Y-67712500D03*
%TD*%
D27*
%TO.C,C23*%
X109000000Y-75500000D03*
X103400000Y-75500000D03*
%TD*%
D24*
%TO.C,D1*%
X109200000Y-60900000D03*
X109200000Y-62775000D03*
%TD*%
D28*
%TO.C,J2*%
X113324999Y-72799999D03*
D29*
X113324999Y-75339999D03*
%TD*%
D28*
%TO.C,J3*%
X154899999Y-87524999D03*
D29*
X152359999Y-87524999D03*
X149819999Y-87524999D03*
X147279999Y-87524999D03*
%TD*%
D30*
%TO.C,U6*%
X144190000Y-76460000D03*
X144190000Y-79000000D03*
X144190000Y-81540000D03*
X151810000Y-81540000D03*
X151810000Y-79000000D03*
X151810000Y-76460000D03*
%TD*%
D22*
%TO.C,C17*%
X124875000Y-71200000D03*
X124875000Y-67600000D03*
%TD*%
D30*
%TO.C,U7*%
X129190000Y-76460000D03*
X129190000Y-79000000D03*
X129190000Y-81540000D03*
X136810000Y-81540000D03*
X136810000Y-79000000D03*
X136810000Y-76460000D03*
%TD*%
D27*
%TO.C,C24*%
X108975000Y-84450000D03*
X103375000Y-84450000D03*
%TD*%
M02*
